<?xml version="1.0" standalone="no"?>
<!DOCTYPE svg PUBLIC "-//W3C//DTD SVG 20010904//EN"
 "http://www.w3.org/TR/2001/REC-SVG-20010904/DTD/svg10.dtd">
<svg version="1.0" xmlns="http://www.w3.org/2000/svg"
 width="114.000000pt" height="114.000000pt" viewBox="0 0 114.000000 114.000000"
 preserveAspectRatio="xMidYMid meet">
<metadata>
Created by potrace 1.11, written by Peter Selinger 2001-2013
</metadata>
<g transform="translate(0.000000,114.000000) scale(0.100000,-0.100000)"
fill="#000000" stroke="none">
<path d="M525 1105 c-71 -18 -129 -51 -188 -108 -29 -27 -41 -42 -27 -33 132
87 278 99 408 34 65 -33 130 -102 165 -177 26 -56 32 -79 33 -152 2 -73 -2
-94 -24 -147 -64 -148 -210 -245 -359 -237 -36 2 -42 0 -27 -8 11 -6 59 -12
107 -14 69 -2 102 2 149 18 339 114 399 567 102 765 -99 65 -226 88 -339 59z"/>
<path d="M282 1049 c-60 -35 -128 -101 -173 -165 -28 -41 -83 -154 -75 -154 2
0 -3 -26 -10 -57 -27 -117 5 -282 75 -391 131 -202 359 -296 586 -243 184 44
329 171 394 344 31 84 45 198 30 247 -6 21 -7 19 -8 -15 -1 -22 -14 -72 -29
-110 -81 -204 -269 -327 -481 -312 -264 17 -455 221 -453 482 0 89 2 101 16
140 5 11 14 37 22 59 21 55 66 117 120 165 26 23 45 41 43 41 -2 0 -28 -14
-57 -31z"/>
<path d="M495 958 c-71 -10 -113 -30 -167 -77 -70 -62 -103 -136 -102 -231 0
-88 22 -146 80 -210 32 -35 154 -111 154 -95 0 2 10 1 23 -4 12 -5 31 -5 42 0
14 5 15 8 4 8 -50 3 -144 74 -175 133 -21 40 -41 115 -38 143 11 119 68 202
171 247 97 43 221 18 301 -59 23 -22 24 -14 2 17 -24 34 -95 93 -125 105 -55
21 -124 30 -170 23z"/>
<path d="M451 768 c-42 -41 -59 -74 -66 -131 -21 -153 118 -274 271 -236 60
15 138 90 148 141 3 18 8 43 10 55 3 13 2 25 -2 27 -4 3 -9 -7 -10 -21 -5 -60
-71 -124 -147 -141 -81 -18 -178 34 -211 114 -30 71 -9 170 44 212 9 6 11 12
6 12 -6 0 -25 -14 -43 -32z"/>
</g>
</svg>
