<?xml version="1.0" standalone="no"?>
<!DOCTYPE svg PUBLIC "-//W3C//DTD SVG 20010904//EN"
 "http://www.w3.org/TR/2001/REC-SVG-20010904/DTD/svg10.dtd">
<svg version="1.0" xmlns="http://www.w3.org/2000/svg"
 width="280.000000pt" height="280.000000pt" viewBox="0 0 280.000000 280.000000"
 preserveAspectRatio="xMidYMid meet">
<metadata>
Created by potrace 1.11, written by Peter Selinger 2001-2013
</metadata>
<g transform="translate(0.000000,280.000000) scale(0.100000,-0.100000)"
fill="#000000" stroke="none">
<path d="M1469 2786 c-2 -3 -27 -7 -54 -11 -225 -26 -458 -143 -627 -316 -96
-98 -141 -161 -69 -96 224 201 557 278 871 200 36 -9 72 -19 80 -23 8 -4 53
-25 100 -47 281 -133 478 -403 527 -723 8 -49 7 -237 -1 -285 -62 -360 -307
-650 -646 -765 -36 -12 -78 -24 -95 -27 -16 -2 -47 -8 -67 -13 -48 -10 -244
-10 -280 1 -16 4 -28 4 -28 0 0 -9 128 -45 218 -61 98 -17 303 -14 374 6 9 3
27 7 39 9 100 19 252 86 357 157 246 165 425 444 471 733 12 78 12 276 0 340
-5 28 -12 63 -15 78 -9 51 -45 151 -87 237 -123 256 -353 457 -628 551 -35 11
-75 23 -89 26 -14 2 -45 9 -70 14 -46 11 -273 23 -281 15z"/>
<path d="M773 2661 c-243 -130 -407 -278 -548 -495 -86 -131 -144 -268 -180
-421 -35 -146 -37 -166 -40 -315 -11 -620 395 -1176 990 -1356 309 -94 641
-77 940 47 77 32 217 105 250 131 213 166 300 259 413 440 72 116 157 339 176
463 3 22 9 56 13 75 11 52 7 340 -5 375 -10 29 -10 28 -12 -20 -2 -27 -4 -59
-5 -70 -2 -11 -6 -39 -9 -62 -3 -23 -10 -53 -16 -67 -5 -15 -7 -26 -5 -26 9 0
-58 -176 -93 -245 -59 -118 -131 -215 -236 -320 -237 -237 -525 -358 -851
-359 -159 -1 -221 8 -368 50 -133 37 -302 123 -396 199 -211 172 -341 354
-419 590 -50 150 -64 237 -63 405 0 110 2 125 20 228 52 279 231 566 464 741
49 37 65 52 55 51 -2 -1 -35 -18 -75 -39z"/>
<path d="M1246 2388 c-412 -40 -724 -396 -711 -811 2 -56 6 -113 9 -126 72
-323 315 -567 625 -627 90 -18 249 -20 265 -4 8 8 7 10 -5 5 -9 -3 -49 1 -90
9 -248 52 -437 213 -529 451 -44 113 -50 291 -15 420 77 289 334 495 637 512
230 13 432 -77 586 -262 l33 -40 -23 45 c-44 84 -81 135 -147 201 -131 131
-295 210 -463 224 -40 4 -77 7 -83 9 -5 1 -45 -1 -89 -6z"/>
<path d="M1181 1958 c-201 -135 -292 -388 -222 -617 82 -267 347 -432 619
-386 23 4 44 6 47 6 17 -1 146 62 189 94 88 65 181 197 202 288 16 67 22 109
22 167 l0 65 -13 -54 c-49 -197 -158 -325 -325 -381 -183 -62 -364 -19 -500
119 -131 131 -176 305 -124 477 26 88 58 142 124 210 29 30 50 54 48 54 -3 0
-33 -19 -67 -42z"/>
</g>
</svg>
